<svg width="86" height="22" viewBox="0 0 86 22" fill="none" xmlns="http://www.w3.org/2000/svg">
<path d="M4.25496 13.5V21H0.654961V0.6H7.46496C9.52496 0.6 11.105 1.13 12.205 2.19C13.325 3.23 13.885 4.63 13.885 6.39V7.68C13.885 8.84 13.635 9.86 13.135 10.74C12.635 11.62 11.915 12.29 10.975 12.75C12.615 15.55 14.015 18.3 15.175 21H11.065C10.065 18.5 8.87496 16 7.49496 13.5H4.25496ZM7.46496 3.9H4.25496V10.2H7.46496C8.34496 10.2 9.01496 9.98 9.47496 9.54C9.95496 9.08 10.195 8.46 10.195 7.68V6.39C10.195 5.63 9.95496 5.03 9.47496 4.59C9.01496 4.13 8.34496 3.9 7.46496 3.9ZM29.7962 21L28.5362 17.01H21.5462L20.2862 21H16.7162L23.5262 0.6H26.7062L33.5462 21H29.7962ZM23.4962 10.77L22.5662 13.71H27.4862L26.5562 10.77L25.0562 5.61L23.4962 10.77ZM50.7979 8.64V12.93C50.7979 15.53 50.1479 17.58 48.8479 19.08C47.5479 20.56 45.6479 21.3 43.1479 21.3C40.6279 21.3 38.7179 20.56 37.4179 19.08C36.1379 17.58 35.4979 15.53 35.4979 12.93V8.64C35.4979 6.04 36.1379 4 37.4179 2.52C38.7179 1.04 40.6279 0.299998 43.1479 0.299998C45.6479 0.299998 47.5479 1.04 48.8479 2.52C50.1479 4 50.7979 6.04 50.7979 8.64ZM47.1079 8.64C47.1079 7 46.7879 5.77 46.1479 4.95C45.5079 4.11 44.5079 3.69 43.1479 3.69C41.7879 3.69 40.7879 4.11 40.1479 4.95C39.5079 5.77 39.1879 7 39.1879 8.64V12.93C39.1879 14.57 39.5079 15.81 40.1479 16.65C40.7879 17.49 41.7879 17.91 43.1479 17.91C44.5079 17.91 45.5079 17.49 46.1479 16.65C46.7879 15.81 47.1079 14.57 47.1079 12.93V8.64ZM55.5573 21V0.6H58.8573C60.4373 2.66 61.9373 4.84 63.3573 7.14C64.7773 9.42 66.0673 11.77 67.2273 14.19L66.9573 8.1V0.6H70.4073V21H67.1073C65.8273 18.48 64.4973 15.95 63.1173 13.41C61.7573 10.85 60.3073 8.44 58.7673 6.18L59.0073 13.2V21H55.5573ZM85.1258 18V21H74.2658V18.3L80.6858 8.79H74.5658V5.79H84.8258V8.49L78.4058 18H85.1258Z" fill="white"/>
</svg>
